<svg height="512pt" viewBox="0 -17 512.00018 512" width="512pt" xmlns="http://www.w3.org/2000/svg" xmlns:xlink="http://www.w3.org/1999/xlink"><linearGradient id="a" gradientUnits="userSpaceOnUse" x1="0" x2="512.0003759972" y1="238.9462129986" y2="238.9462129986"><stop offset="0" stop-color="#80d8ff"/><stop offset="1" stop-color="#ea80fc"/></linearGradient><path d="m503.871094 3.90625c-8.890625-6.554688-21.410156-4.667969-27.96875 4.226562l-56.167969 76.15625v-6.132812c0-11.046875-8.953125-20-20-20h-379.734375c-11.046875 0-20 8.953125-20 20v379.734375c0 11.046875 8.953125 20 20 20h379.734375c11.046875 0 20-8.953125 20-20v-306.207031l88.359375-119.8125c6.558594-8.890625 4.667969-21.410156-4.222656-27.964844zm-124.136719 433.984375h-339.734375v-339.734375h339.734375v40.371094l-149.527344 202.75-107.953125-107.953125c-7.8125-7.8125-20.476562-7.8125-28.285156 0-7.8125 7.808593-7.8125 20.472656 0 28.28125l124.394531 124.394531c8.648438 8.648438 22.976563 7.574219 30.238281-2.269531l131.132813-177.8125zm0 0" fill="url(#a)"/></svg>